<?xml version="1.0" encoding="utf-8"?>
<!-- Generator: Adobe Illustrator 21.1.0, SVG Export Plug-In . SVG Version: 6.00 Build 0)  -->
<svg version="1.1" id="Layer_1" xmlns="http://www.w3.org/2000/svg" xmlns:xlink="http://www.w3.org/1999/xlink" x="0px" y="0px"
	 viewBox="0 0 107.6 68.2" style="enable-background:new 0 0 107.6 68.2;" xml:space="preserve">
<style type="text/css">
	.st0{fill:#243E87;}
	.st1{fill:#E31E26;}
	.st2{fill:#FFFFFF;}
	.st3{fill:none;stroke:#FCEE21;stroke-width:1.48;stroke-miterlimit:10;}
	.st4{fill:#FCEE21;}
	.st5{clip-path:url(#SVGID_2_);fill:#FCEE21;}
	.st6{clip-path:url(#SVGID_4_);fill:#FCEE21;}
	.st7{clip-path:url(#SVGID_6_);fill:#FCEE21;}
	.st8{clip-path:url(#SVGID_8_);fill:#FCEE21;}
</style>
<g>
	<rect x="1.1" y="29" class="st0" width="104.9" height="28.7"/>
	<rect x="1.1" y="1" class="st1" width="104.9" height="28"/>
	<path class="st2" d="M22,18.1c0.1,0.4,0.2,0.7,0.4,0.9c0.4,0.4,1,0.6,1.9,0.6c0.5,0,1,0,1.3-0.1c0.6-0.2,0.9-0.5,0.9-1
		c0-0.3-0.2-0.5-0.5-0.7c-0.3-0.2-0.8-0.3-1.5-0.4l-1.2-0.2c-1.1-0.2-1.9-0.4-2.3-0.7c-0.7-0.4-1.1-1.1-1.1-2c0-0.8,0.4-1.5,1.1-2
		c0.7-0.5,1.7-0.8,3.1-0.8c1.1,0,2.1,0.3,2.9,0.8c0.8,0.5,1.2,1.2,1.3,2.2h-2.1c0-0.5-0.3-0.9-0.9-1.2c-0.4-0.2-0.8-0.2-1.3-0.2
		c-0.6,0-1.1,0.1-1.4,0.3c-0.4,0.2-0.5,0.5-0.5,0.8c0,0.3,0.2,0.6,0.5,0.7c0.2,0.1,0.7,0.2,1.4,0.4l1.9,0.4c0.8,0.2,1.4,0.4,1.8,0.7
		c0.6,0.4,1,1,1,1.8c0,0.8-0.4,1.5-1.1,2.1c-0.8,0.5-1.8,0.8-3.2,0.8c-1.4,0-2.5-0.3-3.3-0.8c-0.8-0.5-1.2-1.3-1.2-2.2H22z"/>
	<path class="st2" d="M39.6,20.1c-0.8,0.7-2,1.1-3.5,1.1c-1.5,0-2.7-0.4-3.5-1.1C31.6,19.2,31,18,31,16.4c0-1.7,0.5-2.9,1.6-3.7
		c0.8-0.7,2-1.1,3.5-1.1c1.5,0,2.7,0.4,3.5,1.1c1.1,0.8,1.6,2.1,1.6,3.7C41.2,18,40.7,19.2,39.6,20.1 M38.2,18.7
		c0.5-0.6,0.8-1.3,0.8-2.4c0-1-0.3-1.8-0.8-2.3c-0.5-0.6-1.2-0.8-2.1-0.8S34.5,13.5,34,14s-0.8,1.3-0.8,2.4c0,1,0.3,1.8,0.8,2.4
		c0.5,0.6,1.2,0.8,2.1,0.8S37.7,19.3,38.2,18.7"/>
	<polygon class="st2" points="44.1,11.9 46.3,11.9 46.3,19.3 51.6,19.3 51.6,20.9 44.1,20.9 	"/>
	<rect x="54.1" y="11.9" class="st2" width="2.2" height="9"/>
	<polygon class="st2" points="66.7,11.9 66.7,13.5 63.5,13.5 63.5,20.9 61.3,20.9 61.3,13.5 58.1,13.5 58.1,11.9 	"/>
	<path class="st2" d="M76.5,20.1c-0.8,0.7-2,1.1-3.5,1.1c-1.5,0-2.7-0.4-3.5-1.1c-1.1-0.9-1.6-2.1-1.6-3.7c0-1.7,0.5-2.9,1.6-3.7
		c0.8-0.7,2-1.1,3.5-1.1c1.5,0,2.7,0.4,3.5,1.1c1.1,0.8,1.6,2.1,1.6,3.7C78.1,18,77.6,19.2,76.5,20.1 M75.1,18.7
		c0.5-0.6,0.8-1.3,0.8-2.4c0-1-0.3-1.8-0.8-2.3c-0.5-0.6-1.2-0.8-2.1-0.8s-1.6,0.3-2.1,0.8c-0.5,0.6-0.8,1.3-0.8,2.4
		c0,1,0.3,1.8,0.8,2.4c0.5,0.6,1.2,0.8,2.1,0.8S74.6,19.3,75.1,18.7"/>
	<polygon class="st2" points="80.7,11.9 83,11.9 87.2,18.2 87.2,11.9 89.3,11.9 89.3,20.9 87.1,20.9 82.8,14.5 82.8,20.9 80.7,20.9 
			"/>
	<path class="st0" d="M4.7,60.7c0.2,0.3,0.3,0.6,0.3,1c0,0.4-0.1,0.7-0.3,0.9c-0.1,0.1-0.2,0.3-0.4,0.4c0.3,0.1,0.5,0.3,0.6,0.6
		c0.1,0.3,0.2,0.6,0.2,0.9c0,0.4-0.1,0.7-0.2,1c-0.1,0.2-0.2,0.4-0.4,0.5c-0.2,0.2-0.4,0.3-0.6,0.3c-0.2,0.1-0.5,0.1-0.8,0.1H0.6V60
		h2.7C4,60,4.4,60.2,4.7,60.7 M1.7,61.1v1.4h1.3c0.2,0,0.4-0.1,0.6-0.2c0.1-0.1,0.2-0.3,0.2-0.6c0-0.3-0.1-0.5-0.3-0.6
		c-0.2-0.1-0.4-0.1-0.6-0.1H1.7z M1.7,63.5v1.7h1.3c0.2,0,0.4,0,0.6-0.1C3.9,65,4,64.7,4,64.3c0-0.3-0.1-0.6-0.4-0.7
		c-0.1-0.1-0.3-0.1-0.5-0.1H1.7z"/>
	<path class="st0" d="M7.6,61.6v2.8c0,0.3,0,0.5,0.1,0.6c0.1,0.2,0.3,0.4,0.6,0.4c0.4,0,0.6-0.2,0.7-0.5c0.1-0.2,0.1-0.4,0.1-0.7
		v-2.5h1.1v4.7h-1v-0.7c0,0,0,0.1-0.1,0.1C9,65.9,9,65.9,8.9,66c-0.2,0.2-0.3,0.3-0.5,0.4c-0.2,0.1-0.3,0.1-0.5,0.1
		c-0.6,0-1-0.2-1.2-0.7c-0.1-0.3-0.2-0.7-0.2-1.2v-2.8H7.6z"/>
	<path class="st0" d="M12.8,61.1h-1.1V60h1.1V61.1z M11.7,61.6h1.1v4.7h-1.1V61.6z"/>
	<rect x="14.3" y="60" class="st0" width="1.1" height="6.3"/>
	<path class="st0" d="M19.1,61.7c0.2,0.1,0.3,0.3,0.5,0.5V60h1.1v6.3h-1v-0.6c-0.2,0.3-0.3,0.5-0.5,0.6c-0.2,0.1-0.4,0.2-0.7,0.2
		c-0.5,0-0.9-0.2-1.2-0.7c-0.3-0.4-0.5-1-0.5-1.7c0-0.8,0.2-1.4,0.5-1.9c0.3-0.5,0.7-0.7,1.3-0.7C18.7,61.5,18.9,61.6,19.1,61.7
		 M19.4,65c0.2-0.3,0.2-0.6,0.2-1c0-0.6-0.1-1-0.4-1.2c-0.2-0.1-0.3-0.2-0.5-0.2c-0.3,0-0.5,0.1-0.7,0.4c-0.1,0.3-0.2,0.6-0.2,1
		c0,0.4,0.1,0.8,0.2,1c0.1,0.3,0.4,0.4,0.7,0.4C19,65.4,19.2,65.3,19.4,65"/>
	<path class="st0" d="M23.2,61.1h-1.1V60h1.1V61.1z M22.1,61.6h1.1v4.7h-1.1V61.6z"/>
	<path class="st0" d="M28,61.9c0.3,0.3,0.4,0.7,0.4,1.3v3.1h-1.1v-2.8c0-0.2,0-0.4-0.1-0.6c-0.1-0.2-0.3-0.4-0.6-0.4
		c-0.4,0-0.6,0.2-0.7,0.5c-0.1,0.2-0.1,0.4-0.1,0.7v2.5h-1.1v-4.7h1v0.7c0.1-0.2,0.3-0.4,0.4-0.5c0.2-0.2,0.5-0.3,0.8-0.3
		C27.4,61.5,27.7,61.7,28,61.9"/>
	<path class="st0" d="M31.9,61.6c0.3,0.1,0.5,0.3,0.6,0.7v-0.7h1v4.4c0,0.6-0.1,1.1-0.3,1.4c-0.3,0.5-0.9,0.8-1.7,0.8
		c-0.5,0-0.9-0.1-1.3-0.4s-0.5-0.6-0.5-1h1.2c0,0.1,0.1,0.2,0.1,0.3c0.1,0.1,0.3,0.2,0.6,0.2c0.4,0,0.6-0.1,0.8-0.4
		c0.1-0.2,0.1-0.5,0.1-1v-0.3c-0.1,0.2-0.2,0.3-0.3,0.4c-0.2,0.2-0.5,0.3-0.8,0.3c-0.5,0-0.9-0.2-1.3-0.6c-0.3-0.4-0.5-1-0.5-1.7
		c0-0.7,0.1-1.3,0.4-1.8c0.3-0.5,0.7-0.7,1.3-0.7C31.6,61.5,31.7,61.6,31.9,61.6 M32.2,65c0.2-0.2,0.3-0.6,0.3-1
		c0-0.4-0.1-0.8-0.2-1c-0.2-0.2-0.4-0.3-0.7-0.3c-0.4,0-0.6,0.2-0.8,0.6c-0.1,0.2-0.1,0.5-0.1,0.8c0,0.3,0,0.5,0.1,0.7
		c0.1,0.4,0.4,0.6,0.8,0.6C31.9,65.3,32.1,65.2,32.2,65"/>
	<polygon class="st0" points="37.7,60 38.9,60 41.1,64.4 41.1,60 42.2,60 42.2,66.3 41,66.3 38.8,61.8 38.8,66.3 37.7,66.3 	"/>
	<path class="st0" d="M46.3,61.7c0.3,0.1,0.5,0.4,0.7,0.7c0.2,0.3,0.3,0.6,0.3,1c0,0.2,0,0.5,0,0.9h-3c0,0.5,0.2,0.8,0.4,1
		c0.2,0.1,0.4,0.2,0.6,0.2c0.2,0,0.4-0.1,0.6-0.2c0.1-0.1,0.2-0.2,0.2-0.3h1.1c0,0.3-0.2,0.6-0.4,0.8c-0.4,0.5-0.9,0.7-1.5,0.7
		c-0.5,0-1-0.2-1.4-0.6c-0.4-0.4-0.6-1-0.6-1.9c0-0.8,0.2-1.4,0.6-1.9c0.4-0.4,0.9-0.6,1.5-0.6C45.7,61.5,46,61.6,46.3,61.7
		 M44.7,62.8c-0.2,0.2-0.2,0.4-0.3,0.7h1.8c0-0.3-0.1-0.6-0.3-0.7c-0.2-0.2-0.4-0.3-0.6-0.3C45.1,62.5,44.9,62.6,44.7,62.8"/>
	<path class="st0" d="M48,62.6v-0.9h0.6v-1.3h1.1v1.3h0.7v0.9h-0.7V65c0,0.2,0,0.3,0.1,0.4c0,0,0.2,0.1,0.4,0.1c0,0,0.1,0,0.1,0
		c0,0,0.1,0,0.1,0v0.9l-0.5,0c-0.5,0-0.8-0.1-1-0.3c-0.1-0.1-0.2-0.4-0.2-0.6v-2.9H48z"/>
	<polygon class="st0" points="53.3,61.6 54.4,61.6 55,65 55.7,61.6 56.8,61.6 55.6,66.3 54.5,66.3 53.9,62.9 53.2,66.3 52.1,66.3 
		51,61.6 52.1,61.6 52.7,65 	"/>
	<path class="st0" d="M61.2,65.7c-0.3,0.5-0.9,0.7-1.6,0.7s-1.2-0.2-1.6-0.7c-0.3-0.5-0.5-1.1-0.5-1.8c0-0.7,0.2-1.3,0.5-1.7
		c0.3-0.5,0.9-0.7,1.6-0.7s1.2,0.2,1.6,0.7c0.3,0.5,0.5,1.1,0.5,1.7C61.8,64.7,61.6,65.3,61.2,65.7 M60.4,65.1
		c0.2-0.3,0.2-0.6,0.2-1.1c0-0.5-0.1-0.8-0.2-1.1c-0.2-0.3-0.4-0.4-0.7-0.4c-0.3,0-0.5,0.1-0.7,0.4c-0.2,0.3-0.3,0.6-0.3,1.1
		c0,0.5,0.1,0.8,0.3,1.1c0.2,0.3,0.4,0.4,0.7,0.4C60,65.5,60.2,65.3,60.4,65.1"/>
	<path class="st0" d="M65.3,61.5C65.3,61.5,65.3,61.5,65.3,61.5l0.1,1.3c-0.1,0-0.1,0-0.2,0c-0.1,0-0.1,0-0.1,0
		c-0.4,0-0.7,0.2-0.9,0.5c-0.1,0.2-0.1,0.5-0.1,0.8v2.2H63v-4.7h1v0.8c0.2-0.3,0.3-0.5,0.4-0.6C64.6,61.6,64.9,61.5,65.3,61.5
		C65.2,61.5,65.3,61.5,65.3,61.5"/>
	<polygon class="st0" points="66.5,60 67.5,60 67.5,63.4 68.8,61.7 70.2,61.7 68.7,63.4 70.2,66.3 68.9,66.3 67.9,64.3 67.5,64.8 
		67.5,66.3 66.5,66.3 	"/>
	<path class="st0" d="M72,64.8c0,0.2,0.1,0.4,0.1,0.5c0.1,0.2,0.4,0.2,0.7,0.2c0.2,0,0.4,0,0.5-0.1c0.1-0.1,0.2-0.2,0.2-0.3
		c0-0.1-0.1-0.2-0.2-0.3c-0.1-0.1-0.5-0.2-1.1-0.4c-0.5-0.1-0.8-0.3-1-0.5c-0.2-0.2-0.3-0.5-0.3-0.8c0-0.4,0.1-0.8,0.4-1.1
		c0.3-0.3,0.7-0.5,1.2-0.5c0.5,0,0.9,0.1,1.2,0.3c0.3,0.2,0.5,0.6,0.6,1.2h-1.1c0-0.2-0.1-0.3-0.1-0.4c-0.1-0.2-0.3-0.2-0.6-0.2
		c-0.2,0-0.4,0-0.5,0.1c-0.1,0.1-0.1,0.2-0.1,0.3c0,0.1,0.1,0.2,0.2,0.3c0.1,0.1,0.5,0.2,1.1,0.3c0.4,0.1,0.7,0.3,1,0.5
		c0.2,0.2,0.3,0.5,0.3,0.9c0,0.5-0.1,0.8-0.4,1.1c-0.3,0.3-0.8,0.4-1.4,0.4c-0.6,0-1.1-0.2-1.4-0.5c-0.3-0.3-0.5-0.7-0.5-1.2H72z"/>
	<path class="st0" d="M80.2,59.9c0.1,0,0.1,0,0.2,0v1c-0.1,0-0.2,0-0.3,0c-0.1,0-0.2,0-0.3,0.1c-0.1,0.1-0.1,0.2-0.1,0.3v0.4h0.7
		v0.9h-0.7v3.8h-1.1v-3.8h-0.6v-0.9h0.6v-0.3c0-0.5,0.1-0.8,0.2-1c0.2-0.3,0.5-0.4,1.1-0.4C80.1,59.9,80.2,59.9,80.2,59.9"/>
	<path class="st0" d="M85,65.7c-0.3,0.5-0.9,0.7-1.6,0.7s-1.2-0.2-1.6-0.7c-0.3-0.5-0.5-1.1-0.5-1.8c0-0.7,0.2-1.3,0.5-1.7
		c0.3-0.5,0.9-0.7,1.6-0.7s1.2,0.2,1.6,0.7c0.3,0.5,0.5,1.1,0.5,1.7C85.5,64.7,85.3,65.3,85,65.7 M84.1,65.1
		c0.2-0.3,0.2-0.6,0.2-1.1c0-0.5-0.1-0.8-0.2-1.1c-0.2-0.3-0.4-0.4-0.7-0.4c-0.3,0-0.5,0.1-0.7,0.4c-0.2,0.3-0.3,0.6-0.3,1.1
		c0,0.5,0.1,0.8,0.3,1.1c0.2,0.3,0.4,0.4,0.7,0.4C83.7,65.5,84,65.3,84.1,65.1"/>
	<path class="st0" d="M89,61.5C89,61.5,89,61.5,89,61.5l0.1,1.3c-0.1,0-0.1,0-0.2,0c-0.1,0-0.1,0-0.1,0c-0.4,0-0.7,0.2-0.9,0.5
		c-0.1,0.2-0.1,0.5-0.1,0.8v2.2h-1.1v-4.7h1v0.8c0.2-0.3,0.3-0.5,0.4-0.6C88.4,61.6,88.6,61.5,89,61.5C89,61.5,89,61.5,89,61.5"/>
	<polygon class="st0" points="92.9,60 94.1,60 94.1,65.2 96.8,65.2 96.8,66.3 92.9,66.3 	"/>
	<path class="st0" d="M99.1,61.1H98V60h1.1V61.1z M98,61.6h1.1v4.7H98V61.6z"/>
	<path class="st0" d="M102.4,59.9c0.1,0,0.1,0,0.2,0v1c-0.1,0-0.2,0-0.3,0c-0.1,0-0.2,0-0.3,0.1c-0.1,0.1-0.1,0.2-0.1,0.3v0.4h0.7
		v0.9h-0.7v3.8h-1.1v-3.8h-0.6v-0.9h0.6v-0.3c0-0.5,0.1-0.8,0.2-1c0.2-0.3,0.5-0.4,1.1-0.4C102.2,59.9,102.3,59.9,102.4,59.9"/>
	<path class="st0" d="M106.2,61.7c0.3,0.1,0.5,0.4,0.7,0.7c0.2,0.3,0.3,0.6,0.3,1c0,0.2,0,0.5,0,0.9h-3c0,0.5,0.2,0.8,0.4,1
		c0.2,0.1,0.4,0.2,0.6,0.2c0.2,0,0.4-0.1,0.6-0.2c0.1-0.1,0.2-0.2,0.2-0.3h1.1c0,0.3-0.2,0.6-0.4,0.8c-0.4,0.5-0.9,0.7-1.5,0.7
		c-0.5,0-1-0.2-1.4-0.6c-0.4-0.4-0.6-1-0.6-1.9c0-0.8,0.2-1.4,0.6-1.9c0.4-0.4,0.9-0.6,1.5-0.6C105.6,61.5,105.9,61.6,106.2,61.7
		 M104.6,62.8c-0.2,0.2-0.2,0.4-0.3,0.7h1.8c0-0.3-0.1-0.6-0.3-0.7c-0.2-0.2-0.4-0.3-0.6-0.3C105,62.5,104.8,62.6,104.6,62.8"/>
	<rect x="1.1" y="1" class="st3" width="105.1" height="56.7"/>
	<path class="st4" d="M37.6,40.2c0.7,0.3,1.3,0.7,1.8,1.3c0.4,0.5,0.7,1.1,0.8,1.8c0.1,0.4,0.1,1,0.1,1.7h-7.5
		c0,0.9,0.4,1.5,1.1,1.9c0.4,0.2,0.9,0.3,1.5,0.3c0.6,0,1.1-0.1,1.5-0.4c0.2-0.1,0.4-0.3,0.6-0.6h2.8c-0.1,0.5-0.4,1.1-1,1.6
		c-0.9,0.9-2.2,1.3-3.9,1.3c-1.4,0-2.6-0.4-3.7-1.1c-1.1-0.7-1.6-1.9-1.6-3.5c0-1.5,0.5-2.7,1.4-3.5c1-0.8,2.2-1.2,3.7-1.2
		C36,39.8,36.8,39.9,37.6,40.2 M33.5,42.2c-0.4,0.3-0.6,0.8-0.7,1.4h4.7c-0.1-0.6-0.3-1.1-0.7-1.4c-0.4-0.3-1-0.5-1.6-0.5
		C34.4,41.7,33.9,41.9,33.5,42.2"/>
	<rect x="18.2" y="40.1" class="st4" width="10.9" height="1.8"/>
	<rect x="22.3" y="41.1" class="st4" width="2.6" height="7.8"/>
	<rect x="42.3" y="35.8" class="st4" width="2.3" height="13"/>
	<path class="st4" d="M55.2,48.9h-2.1v-5.5c0-1-0.9-1.9-2-1.9h-0.6c-1.1,0-2,0.8-2,1.9v5.5h-2.1v-5.5c0-2.2,1.8-3.9,4-3.9h0.6
		c2.2,0,4,1.8,4,3.9V48.9z"/>
	<path class="st4" d="M62.1,48.9H60v-5.5c0-1-0.9-1.9-2-1.9h-0.6c-1.1,0-2,0.8-2,1.9v5.5h-2.1v-5.5c0-2.2,1.8-3.9,4-3.9H58
		c2.2,0,4,1.8,4,3.9V48.9z"/>
	<g>
		<defs>
			<rect id="SVGID_1_" x="63" y="44.3" width="12.8" height="5.4"/>
		</defs>
		<clipPath id="SVGID_2_">
			<use xlink:href="#SVGID_1_"  style="overflow:visible;"/>
		</clipPath>
		<path class="st5" d="M69.3,39.6c-3.4,0-3.9,0.3-3.9,0.3c-0.7,0.3-2,1.2-2,3.4v3.4c0,0,0.1,2.1,2.5,2.2h9.5v-2h-9.7v-1.7h9.7v-1.8
			h-9.7v-1.8h9.8v-0.4v-1.5v-0.2C75.4,39.6,72.9,39.6,69.3,39.6"/>
	</g>
	<g>
		<defs>
			<rect id="SVGID_3_" x="63" y="38.9" width="12.8" height="5.4"/>
		</defs>
		<clipPath id="SVGID_4_">
			<use xlink:href="#SVGID_3_"  style="overflow:visible;"/>
		</clipPath>
		<path class="st6" d="M69.3,49.1c-3.4,0-3.9-0.3-3.9-0.3c-0.7-0.3-2-1.2-2-3.4V42c0,0,0.1-2.1,2.5-2.2h9.5v2h-9.7v1.7h9.7v1.8h-9.7
			V47h9.8v0.4v1.5v0.2C75.4,49.1,72.9,49.1,69.3,49.1"/>
	</g>
	<g>
		<defs>
			<rect id="SVGID_5_" x="76.7" y="44.3" width="12.8" height="5.4"/>
		</defs>
		<clipPath id="SVGID_6_">
			<use xlink:href="#SVGID_5_"  style="overflow:visible;"/>
		</clipPath>
		<path class="st7" d="M83,39.6c-3.4,0-3.9,0.3-3.9,0.3c-0.7,0.3-2,1.2-2,3.4v3.4c0,0,0.1,2.1,2.5,2.2h9.5v-2h-9.7v-1.7v-1.8v-1.8
			h9.8v-0.4v-1.5v-0.2C89.1,39.6,86.7,39.6,83,39.6"/>
	</g>
	<g>
		<defs>
			<rect id="SVGID_7_" x="76.7" y="38.9" width="12.8" height="5.7"/>
		</defs>
		<clipPath id="SVGID_8_">
			<use xlink:href="#SVGID_7_"  style="overflow:visible;"/>
		</clipPath>
		<path class="st8" d="M83,49.1c-3.4,0-3.9-0.3-3.9-0.3c-0.7-0.3-2-1.2-2-3.4V42c0,0,0.1-2.1,2.5-2.2h9.5v2h-9.7v1.7h0v1.8h0V47h9.8
			v0.4v1.5v0.2C89.1,49.1,86.7,49.1,83,49.1"/>
	</g>
	<rect x="63.4" y="44.2" class="st4" width="11.9" height="0.4"/>
</g>
</svg>
